<svg xmlns="http://www.w3.org/2000/svg" viewBox="0 0 300 64" fill="none">
  <defs>
    <linearGradient id="aaiGrad" gradientUnits="userSpaceOnUse" x1="0" y1="0" x2="300" y2="0">
      <stop offset="0" stop-color="#6a2fe0"></stop>
      <stop offset="0.5" stop-color="#1f6fe5"></stop>
      <stop offset="1" stop-color="#16c2b0"></stop>
    </linearGradient>
  </defs>
  <g fill="url(#aaiGrad)">
    <circle cx="10" cy="31" r="2.3"></circle><circle cx="18" cy="22" r="1.6"></circle><circle cx="20" cy="40" r="2"></circle>
    <circle cx="27" cy="31" r="2.7"></circle><circle cx="31" cy="18" r="1.5"></circle><circle cx="34" cy="45" r="1.9"></circle>
    <circle cx="39" cy="26" r="2.2"></circle><circle cx="41" cy="37" r="1.6"></circle><circle cx="47" cy="21" r="2.1"></circle>
    <circle cx="49" cy="41" r="1.7"></circle><circle cx="53" cy="31" r="2.5"></circle><circle cx="57" cy="24" r="1.6"></circle>
    <circle cx="59" cy="39" r="1.8"></circle><circle cx="16" cy="32" r="1.3"></circle><circle cx="45" cy="32" r="1.4"></circle>
  </g>
  <g fill="none" stroke="url(#aaiGrad)" stroke-width="3" stroke-linecap="round" stroke-linejoin="round">
    <path d="M64 32 C 90 9 134 9 160 32"></path>
    <path d="M64 32 C 90 55 134 55 160 32"></path>
    <path d="M160 32 C 174 12 202 12 216 32 C 230 52 258 52 272 32"></path>
    <path d="M160 32 C 174 52 202 52 216 32 C 230 12 258 12 272 32"></path>
  </g>
  <g stroke="url(#aaiGrad)" stroke-width="2" stroke-linecap="round">
    <line x1="182" y1="19" x2="182" y2="45"></line><line x1="188" y1="17" x2="188" y2="47"></line><line x1="194" y1="19" x2="194" y2="45"></line>
    <line x1="238" y1="19" x2="238" y2="45"></line><line x1="244" y1="17" x2="244" y2="47"></line><line x1="250" y1="19" x2="250" y2="45"></line>
  </g>
  <circle cx="110" cy="32" r="8" fill="url(#aaiGrad)"></circle>
  <circle cx="146" cy="20" r="4.5" fill="url(#aaiGrad)"></circle>
  <circle cx="272" cy="32" r="3.4" fill="url(#aaiGrad)"></circle>
</svg>